<svg width="120" height="120" viewBox="0 0 120 120" fill="none" xmlns="http://www.w3.org/2000/svg">
<g clip-path="url(#clip0_4_59)">
<path d="M-42.0472 -92.3884C-40.8854 -93.5697 -38.986 -93.5854 -37.8047 -92.4236L15.4466 -40.0471C16.6279 -38.8852 16.6436 -36.9858 15.4818 -35.8046L-36.8947 17.4468C-38.0566 18.628 -39.956 18.6438 -41.1372 17.4819L-94.3886 -34.8946C-95.5699 -36.0564 -95.5856 -37.9558 -94.4237 -39.1371L-42.0472 -92.3884Z" fill="#171738"/>
<path d="M117.028 -20.4791C118.19 -21.6604 120.09 -21.6761 121.271 -20.5143L163.507 21.0283C164.689 22.1901 164.704 24.0896 163.542 25.2708L122 67.5073C120.838 68.6885 118.939 68.7042 117.757 67.5424L75.5209 25.9998C74.3397 24.838 74.3239 22.9386 75.4858 21.7574L117.028 -20.4791Z" fill="#171738"/>
<path d="M45.9799 81.6779C47.1417 80.4967 49.0412 80.4809 50.2224 81.6427L111.567 141.98C112.749 143.142 112.764 145.041 111.603 146.222L51.2654 207.567C50.1036 208.749 48.2041 208.764 47.0229 207.603L-14.3221 147.265C-15.5034 146.104 -15.5191 144.204 -14.3573 143.023L45.9799 81.6779Z" fill="#171738"/>
</g>
<defs>
<clipPath id="clip0_4_59">
<rect width="120" height="120" fill="white"/>
</clipPath>
</defs>
</svg>
