<svg width="120" height="120" viewBox="0 0 120 120" fill="none" xmlns="http://www.w3.org/2000/svg">
<g clip-path="url(#clip0_4_60)">
<path d="M-2.97167 -20.4791C-1.80984 -21.6604 0.0895917 -21.6761 1.27083 -20.5143L43.5073 21.0283C44.6885 22.1901 44.7043 24.0896 43.5424 25.2708L1.99987 67.5073C0.838038 68.6885 -1.06139 68.7042 -2.24263 67.5424L-44.4791 25.9998C-45.6603 24.838 -45.6761 22.9386 -44.5142 21.7574L-2.97167 -20.4791Z" fill="#171738"/>
<path d="M165.011 -20.3302C166.172 -21.5114 168.072 -21.5272 169.253 -20.3653L229.621 39.0106C230.802 40.1725 230.818 42.0719 229.656 43.2531L170.28 103.621C169.118 104.802 167.219 104.818 166.038 103.656L105.67 44.28C104.489 43.1182 104.473 41.2188 105.635 40.0375L165.011 -20.3302Z" fill="#171738"/>
<path d="M55.5565 72.484C56.7183 71.3027 58.6177 71.287 59.799 72.4488L97.5266 109.557C98.7078 110.718 98.7235 112.618 97.5617 113.799L60.4539 151.527C59.2921 152.708 57.3927 152.724 56.2115 151.562L18.4839 114.454C17.3026 113.292 17.2869 111.393 18.4487 110.212L55.5565 72.484Z" fill="#171738"/>
</g>
<defs>
<clipPath id="clip0_4_60">
<rect width="120" height="120" fill="white"/>
</clipPath>
</defs>
</svg>
