<svg width="120" height="120" viewBox="0 0 120 120" fill="none" xmlns="http://www.w3.org/2000/svg">
<g clip-path="url(#clip0_4_62)">
<path d="M50.1969 -51.5654C51.3587 -52.7466 53.2581 -52.7623 54.4394 -51.6005L89.7881 -16.8326C90.9693 -15.6707 90.985 -13.7713 89.8232 -12.5901L55.0553 22.7586C53.8934 23.9399 51.994 23.9556 50.8128 22.7938L15.4641 -11.9742C14.2828 -13.136 14.2671 -15.0354 15.4289 -16.2167L50.1969 -51.5654Z" fill="#171738"/>
<path d="M165.98 -38.3221C167.142 -39.5033 169.041 -39.5191 170.222 -38.3573L231.567 21.9799C232.749 23.1417 232.764 25.0412 231.603 26.2224L171.265 87.5674C170.104 88.7487 168.204 88.7644 167.023 87.6026L105.678 27.2654C104.497 26.1036 104.481 24.2041 105.643 23.0229L165.98 -38.3221Z" fill="#171738"/>
</g>
<defs>
<clipPath id="clip0_4_62">
<rect width="120" height="120" fill="white"/>
</clipPath>
</defs>
</svg>
