<svg width="120" height="120" viewBox="0 0 120 120" fill="none" xmlns="http://www.w3.org/2000/svg">
<g clip-path="url(#clip0_4_64)">
<path d="M142.486 17.4681C143.648 16.2868 145.547 16.2711 146.728 17.4329L192.451 62.4045C193.632 63.5664 193.648 65.4658 192.486 66.647L147.515 112.37C146.353 113.551 144.454 113.567 143.272 112.405L97.5495 67.4333C96.3683 66.2715 96.3526 64.3721 97.5144 63.1908L142.486 17.4681Z" fill="#171738"/>
<path d="M55.5565 -47.516C56.7183 -48.6973 58.6177 -48.713 59.799 -47.5512L97.5266 -10.4434C98.7078 -9.2816 98.7235 -7.38217 97.5617 -6.20094L60.4539 31.5266C59.2921 32.7079 57.3927 32.7236 56.2115 31.5618L18.4839 -5.54597C17.3026 -6.7078 17.2869 -8.60723 18.4487 -9.78847L55.5565 -47.516Z" fill="#171738"/>
</g>
<defs>
<clipPath id="clip0_4_64">
<rect width="120" height="120" fill="white"/>
</clipPath>
</defs>
</svg>
