<svg width="120" height="120" viewBox="0 0 120 120" fill="none" xmlns="http://www.w3.org/2000/svg">
<g clip-path="url(#clip0_4_49)">
<path d="M-22.8991 11.5784C-21.7372 10.3972 -19.8378 10.3815 -18.6566 11.5433L30.589 59.9798C31.7702 61.1416 31.786 63.0411 30.6241 64.2223L-17.8124 113.468C-18.9742 114.649 -20.8736 114.665 -22.0549 113.503L-71.3005 65.0665C-72.4817 63.9047 -72.4974 62.0052 -71.3356 60.824L-22.8991 11.5784Z" fill="#171738"/>
<path d="M81.934 101.57C83.0958 100.389 84.9952 100.373 86.1765 101.535L134.368 148.934C135.549 150.096 135.564 151.995 134.403 153.177L87.0033 201.368C85.8415 202.549 83.9421 202.565 82.7609 201.403L34.5698 154.003C33.3886 152.842 33.3729 150.942 34.5347 149.761L81.934 101.57Z" fill="#171738"/>
<path d="M133.896 14.4406C135.058 13.2593 136.957 13.2436 138.138 14.4054L174.192 49.8665C175.373 51.0283 175.389 52.9277 174.227 54.1089L138.766 90.1623C137.604 91.3435 135.705 91.3592 134.523 90.1974L98.4701 54.7364C97.2889 53.5746 97.2731 51.6751 98.435 50.4939L133.896 14.4406Z" fill="#171738"/>
</g>
<defs>
<clipPath id="clip0_4_49">
<rect width="120" height="120" fill="white"/>
</clipPath>
</defs>
</svg>
