<svg width="120" height="120" viewBox="0 0 120 120" fill="none" xmlns="http://www.w3.org/2000/svg">
<g clip-path="url(#clip0_4_50)">
<path d="M-38.066 101.57C-36.9042 100.389 -35.0048 100.373 -33.8235 101.535L14.3675 148.934C15.5487 150.096 15.5645 151.995 14.4026 153.177L-32.9967 201.368C-34.1585 202.549 -36.0579 202.565 -37.2391 201.403L-85.4302 154.003C-86.6114 152.842 -86.6271 150.942 -85.4653 149.761L-38.066 101.57Z" fill="#171738"/>
<path d="M13.896 14.4406C15.0578 13.2593 16.9572 13.2436 18.1385 14.4054L54.1918 49.8665C55.3731 51.0283 55.3888 52.9277 54.227 54.1089L18.7659 90.1623C17.6041 91.3435 15.7047 91.3592 14.5234 90.1974L-21.5299 54.7364C-22.7111 53.5746 -22.7269 51.6751 -21.565 50.4939L13.896 14.4406Z" fill="#171738"/>
<path d="M134.044 34.6287C135.206 33.4474 137.105 33.4317 138.287 34.5935L193.647 89.044C194.828 90.2059 194.844 92.1053 193.682 93.2865L139.231 148.647C138.069 149.828 136.17 149.844 134.989 148.682L79.6287 94.2312C78.4475 93.0694 78.4317 91.1699 79.5936 89.9887L134.044 34.6287Z" fill="#171738"/>
</g>
<defs>
<clipPath id="clip0_4_50">
<rect width="120" height="120" fill="white"/>
</clipPath>
</defs>
</svg>
