<svg width="120" height="120" viewBox="0 0 120 120" fill="none" xmlns="http://www.w3.org/2000/svg">
<g clip-path="url(#clip0_4_53)">
<path d="M-42.0472 27.6116C-40.8854 26.4303 -38.986 26.4146 -37.8047 27.5764L15.4466 79.9529C16.6279 81.1148 16.6436 83.0142 15.4818 84.1954L-36.8947 137.447C-38.0566 138.628 -39.956 138.644 -41.1372 137.482L-94.3886 85.1054C-95.5699 83.9436 -95.5856 82.0442 -94.4237 80.8629L-42.0472 27.6116Z" fill="#171738"/>
<path d="M81.934 -18.4301C83.0958 -19.6114 84.9952 -19.6271 86.1765 -18.4653L134.368 28.934C135.549 30.0959 135.564 31.9953 134.403 33.1765L87.0033 81.3676C85.8415 82.5488 83.9421 82.5645 82.7609 81.4027L34.5698 34.0034C33.3886 32.8416 33.3729 30.9421 34.5347 29.7609L81.934 -18.4301Z" fill="#171738"/>
<path d="M117.028 99.5209C118.19 98.3396 120.09 98.3239 121.271 99.4857L163.507 141.028C164.689 142.19 164.704 144.09 163.542 145.271L122 187.507C120.838 188.689 118.939 188.704 117.757 187.542L75.5209 146C74.3397 144.838 74.3239 142.939 75.4858 141.757L117.028 99.5209Z" fill="#171738"/>
</g>
<defs>
<clipPath id="clip0_4_53">
<rect width="120" height="120" fill="white"/>
</clipPath>
</defs>
</svg>
