<svg width="120" height="120" viewBox="0 0 120 120" fill="none" xmlns="http://www.w3.org/2000/svg">
<g clip-path="url(#clip0_4_54)">
<path d="M-38.066 -18.4301C-36.9042 -19.6114 -35.0048 -19.6271 -33.8235 -18.4653L14.3675 28.934C15.5487 30.0959 15.5645 31.9953 14.4026 33.1765L-32.9967 81.3676C-34.1585 82.5488 -36.0579 82.5645 -37.2391 81.4027L-85.4302 34.0034C-86.6114 32.8416 -86.6271 30.9421 -85.4653 29.7609L-38.066 -18.4301Z" fill="#171738"/>
<path d="M134.044 -85.3713C135.206 -86.5526 137.105 -86.5683 138.287 -85.4065L193.647 -30.956C194.828 -29.7941 194.844 -27.8947 193.682 -26.7135L139.231 28.6466C138.069 29.8278 136.17 29.8435 134.989 28.6817L79.6287 -25.7688C78.4475 -26.9306 78.4317 -28.8301 79.5936 -30.0113L134.044 -85.3713Z" fill="#171738"/>
<path d="M91.5633 33.4812C92.7252 32.3 94.6246 32.2843 95.8058 33.4461L133.211 70.2368C134.392 71.3987 134.408 73.2981 133.246 74.4793L96.4555 111.885C95.2937 113.066 93.3943 113.082 92.213 111.92L54.8077 75.129C53.6265 73.9672 53.6108 72.0677 54.7726 70.8865L91.5633 33.4812Z" fill="#171738"/>
<path d="M-2.97167 99.5209C-1.80984 98.3396 0.0895917 98.3239 1.27083 99.4857L43.5073 141.028C44.6885 142.19 44.7043 144.09 43.5424 145.271L1.99987 187.507C0.838038 188.689 -1.06139 188.704 -2.24263 187.542L-44.4791 146C-45.6603 144.838 -45.6761 142.939 -44.5142 141.757L-2.97167 99.5209Z" fill="#171738"/>
<path d="M165.011 99.6698C166.172 98.4886 168.072 98.4728 169.253 99.6347L229.621 159.011C230.802 160.172 230.818 162.072 229.656 163.253L170.28 223.621C169.118 224.802 167.219 224.818 166.038 223.656L105.67 164.28C104.489 163.118 104.473 161.219 105.635 160.038L165.011 99.6698Z" fill="#171738"/>
</g>
<defs>
<clipPath id="clip0_4_54">
<rect width="120" height="120" fill="white"/>
</clipPath>
</defs>
</svg>
