<svg width="120" height="120" viewBox="0 0 120 120" fill="none" xmlns="http://www.w3.org/2000/svg">
<g clip-path="url(#clip0_4_55)">
<path d="M14.0441 -85.3713C15.2059 -86.5526 17.1054 -86.5683 18.2866 -85.4065L73.6466 -30.956C74.8279 -29.7941 74.8436 -27.8947 73.6818 -26.7135L19.2312 28.6466C18.0694 29.8278 16.17 29.8435 14.9887 28.6817L-40.3713 -25.7688C-41.5525 -26.9306 -41.5683 -28.8301 -40.4064 -30.0113L14.0441 -85.3713Z" fill="#171738"/>
<path d="M-28.4367 33.4812C-27.2748 32.3 -25.3754 32.2843 -24.1942 33.4461L13.2111 70.2368C14.3924 71.3987 14.4081 73.2981 13.2463 74.4793L-23.5445 111.885C-24.7063 113.066 -26.6057 113.082 -27.787 111.92L-65.1923 75.129C-66.3735 73.9672 -66.3892 72.0677 -65.2274 70.8865L-28.4367 33.4812Z" fill="#171738"/>
<path d="M45.0107 99.6698C46.1725 98.4886 48.0719 98.4728 49.2532 99.6347L109.621 159.011C110.802 160.172 110.818 162.072 109.656 163.253L50.2801 223.621C49.1183 224.802 47.2188 224.818 46.0376 223.656L-14.3302 164.28C-15.5114 163.118 -15.5271 161.219 -14.3653 160.038L45.0107 99.6698Z" fill="#171738"/>
</g>
<defs>
<clipPath id="clip0_4_55">
<rect width="120" height="120" fill="white"/>
</clipPath>
</defs>
</svg>
