<svg width="120" height="120" viewBox="0 0 120 120" fill="none" xmlns="http://www.w3.org/2000/svg">
<g clip-path="url(#clip0_4_58)">
<path d="M77.9528 -92.3884C79.1146 -93.5697 81.014 -93.5854 82.1953 -92.4236L135.447 -40.0471C136.628 -38.8852 136.644 -36.9858 135.482 -35.8046L83.1053 17.4468C81.9434 18.628 80.044 18.6438 78.8628 17.4819L25.6114 -34.8946C24.4301 -36.0564 24.4144 -37.9558 25.5763 -39.1371L77.9528 -92.3884Z" fill="#171738"/>
<path d="M50.1969 68.4346C51.3587 67.2534 53.2581 67.2377 54.4394 68.3995L89.7881 103.167C90.9693 104.329 90.985 106.229 89.8232 107.41L55.0553 142.759C53.8934 143.94 51.994 143.956 50.8128 142.794L15.4641 108.026C14.2828 106.864 14.2671 104.965 15.4289 103.783L50.1969 68.4346Z" fill="#171738"/>
<path d="M165.98 81.6779C167.142 80.4967 169.041 80.4809 170.222 81.6427L231.567 141.98C232.749 143.142 232.764 145.041 231.603 146.222L171.265 207.567C170.104 208.749 168.204 208.764 167.023 207.603L105.678 147.265C104.497 146.104 104.481 144.204 105.643 143.023L165.98 81.6779Z" fill="#171738"/>
</g>
<defs>
<clipPath id="clip0_4_58">
<rect width="120" height="120" fill="white"/>
</clipPath>
</defs>
</svg>
