<svg width="120" height="120" viewBox="0 0 120 120" fill="none" xmlns="http://www.w3.org/2000/svg">
<g clip-path="url(#clip0_4_17)">
<path d="M117.31 20.4511C118.41 18.2213 121.59 18.2213 122.69 20.4511L153.1 82.0673C153.537 82.9527 154.381 83.5664 155.358 83.7084L223.356 93.589C225.817 93.9466 226.799 96.9705 225.019 98.7061L175.815 146.668C175.108 147.357 174.785 148.35 174.952 149.323L186.568 217.046C186.988 219.497 184.416 221.365 182.215 220.208L121.396 188.234C120.522 187.775 119.478 187.775 118.604 188.234L57.7851 220.208C55.5842 221.365 53.0119 219.497 53.4323 217.046L65.0476 149.323C65.2145 148.35 64.8919 147.357 64.1848 146.668L14.9814 98.7061C13.2008 96.9705 14.1833 93.9466 16.644 93.589L84.6415 83.7084C85.6187 83.5664 86.4634 82.9527 86.9003 82.0673L117.31 20.4511Z" fill="#171738"/>
</g>
<defs>
<clipPath id="clip0_4_17">
<rect width="120" height="120" fill="white"/>
</clipPath>
</defs>
</svg>
