<svg width="120" height="120" viewBox="0 0 120 120" fill="none" xmlns="http://www.w3.org/2000/svg">
<g clip-path="url(#clip0_4_19)">
<path d="M-2.69023 20.4511C-1.58979 18.2213 1.58975 18.2213 2.69019 20.4511L33.0996 82.0673C33.5366 82.9527 34.3813 83.5664 35.3584 83.7084L103.356 93.589C105.817 93.9466 106.799 96.9705 105.019 98.7061L55.8151 146.668C55.1081 147.357 54.7854 148.35 54.9523 149.323L66.5677 217.046C66.988 219.497 64.4157 221.365 62.2149 220.208L1.39601 188.234C0.522034 187.775 -0.522072 187.775 -1.39604 188.234L-62.2149 220.208C-64.4158 221.365 -66.9881 219.497 -66.5677 217.046L-54.9524 149.323C-54.7855 148.35 -55.1081 147.357 -55.8152 146.668L-105.019 98.7061C-106.799 96.9705 -105.817 93.9466 -103.356 93.589L-35.3585 83.7084C-34.3813 83.5664 -33.5366 82.9527 -33.0997 82.0673L-2.69023 20.4511Z" fill="#171738"/>
</g>
<defs>
<clipPath id="clip0_4_19">
<rect width="120" height="120" fill="white"/>
</clipPath>
</defs>
</svg>
