<svg width="120" height="120" viewBox="0 0 120 120" fill="none" xmlns="http://www.w3.org/2000/svg">
<g clip-path="url(#clip0_4_20)">
<path d="M117.31 -99.5489C118.41 -101.779 121.59 -101.779 122.69 -99.5489L153.1 -37.9327C153.537 -37.0473 154.381 -36.4336 155.358 -36.2916L223.356 -26.411C225.817 -26.0534 226.799 -23.0295 225.019 -21.2939L175.815 26.6677C175.108 27.3569 174.785 28.3499 174.952 29.323L186.568 97.0458C186.988 99.4965 184.416 101.365 182.215 100.208L121.396 68.234C120.522 67.7745 119.478 67.7745 118.604 68.234L57.7851 100.208C55.5842 101.365 53.0119 99.4966 53.4323 97.0458L65.0476 29.3231C65.2145 28.3499 64.8919 27.3569 64.1848 26.6677L14.9814 -21.2939C13.2008 -23.0295 14.1833 -26.0534 16.644 -26.411L84.6415 -36.2916C85.6187 -36.4336 86.4634 -37.0473 86.9003 -37.9327L117.31 -99.5489Z" fill="#171738"/>
</g>
<defs>
<clipPath id="clip0_4_20">
<rect width="120" height="120" fill="white"/>
</clipPath>
</defs>
</svg>
