<svg width="120" height="120" viewBox="0 0 120 120" fill="none" xmlns="http://www.w3.org/2000/svg">
<g clip-path="url(#clip0_4_21)">
<path d="M-2.69023 -99.5489C-1.58979 -101.779 1.58975 -101.779 2.69019 -99.5489L33.0996 -37.9327C33.5366 -37.0473 34.3813 -36.4336 35.3584 -36.2916L103.356 -26.411C105.817 -26.0534 106.799 -23.0295 105.019 -21.2939L55.8151 26.6677C55.1081 27.3569 54.7854 28.3499 54.9523 29.323L66.5677 97.0458C66.988 99.4965 64.4157 101.365 62.2149 100.208L1.39601 68.234C0.522034 67.7745 -0.522072 67.7745 -1.39604 68.234L-62.2149 100.208C-64.4158 101.365 -66.9881 99.4966 -66.5677 97.0458L-54.9524 29.3231C-54.7855 28.3499 -55.1081 27.3569 -55.8152 26.6677L-105.019 -21.2939C-106.799 -23.0295 -105.817 -26.0534 -103.356 -26.411L-35.3585 -36.2916C-34.3813 -36.4336 -33.5366 -37.0473 -33.0997 -37.9327L-2.69023 -99.5489Z" fill="#171738"/>
</g>
<defs>
<clipPath id="clip0_4_21">
<rect width="120" height="120" fill="white"/>
</clipPath>
</defs>
</svg>
