<svg width="120" height="120" viewBox="0 0 120 120" fill="none" xmlns="http://www.w3.org/2000/svg">
<g clip-path="url(#clip0_3_2)">
<path d="M130.268 151C131.34 152.856 131.34 155.144 130.268 157L106.232 198.631C105.16 200.488 103.179 201.631 101.036 201.631L52.9641 201.631C50.8205 201.631 48.8397 200.488 47.7679 198.631L23.732 157C22.6603 155.144 22.6603 152.856 23.7321 151L47.768 109.369C48.8397 107.512 50.8205 106.369 52.9641 106.369L101.036 106.369C103.179 106.369 105.16 107.512 106.232 109.369L130.268 151Z" fill="#171738"/>
<path d="M142.268 34C143.34 35.8564 143.34 38.1436 142.268 40L130.732 59.9808C129.66 61.8372 127.679 62.9808 125.536 62.9808L102.464 62.9808C100.321 62.9808 98.3397 61.8372 97.2679 59.9808L85.7321 40C84.6603 38.1436 84.6603 35.8564 85.7321 34L97.2679 14.0192C98.3397 12.1628 100.321 11.0192 102.464 11.0192L125.536 11.0192C127.679 11.0192 129.66 12.1628 130.732 14.0192L142.268 34Z" fill="#171738"/>
</g>
<defs>
<clipPath id="clip0_3_2">
<rect width="120" height="120" fill="white"/>
</clipPath>
</defs>
</svg>
