<svg width="120" height="120" viewBox="0 0 120 120" fill="none" xmlns="http://www.w3.org/2000/svg">
<g clip-path="url(#clip0_3_9)">
<path d="M22.2679 34C23.3397 35.8564 23.3397 38.1436 22.2679 40L10.7321 59.9808C9.66025 61.8372 7.67949 62.9808 5.5359 62.9808L-17.5359 62.9808C-19.6795 62.9808 -21.6603 61.8372 -22.7321 59.9808L-34.2679 40C-35.3397 38.1436 -35.3397 35.8564 -34.2679 34L-22.7321 14.0192C-21.6603 12.1628 -19.6795 11.0192 -17.5359 11.0192L5.5359 11.0192C7.67949 11.0192 9.66025 12.1628 10.7321 14.0192L22.2679 34Z" fill="#171738"/>
<path d="M158.268 89.5C159.34 91.3564 159.34 93.6436 158.268 95.5L137.982 130.636C136.91 132.493 134.929 133.636 132.786 133.636L92.2141 133.636C90.0705 133.636 88.0897 132.493 87.0179 130.636L66.7321 95.5C65.6603 93.6436 65.6603 91.3564 66.7321 89.5L87.0179 54.3638C88.0897 52.5074 90.0705 51.3638 92.2141 51.3638L132.786 51.3638C134.929 51.3638 136.91 52.5074 137.982 54.3638L158.268 89.5Z" fill="#171738"/>
</g>
<defs>
<clipPath id="clip0_3_9">
<rect width="120" height="120" fill="white"/>
</clipPath>
</defs>
</svg>
