<svg width="120" height="120" viewBox="0 0 120 120" fill="none" xmlns="http://www.w3.org/2000/svg">
<g clip-path="url(#clip0_3_10)">
<path d="M38.2679 89.5C39.3397 91.3564 39.3397 93.6436 38.2679 95.5L17.9821 130.636C16.9103 132.493 14.9295 133.636 12.7859 133.636L-27.7859 133.636C-29.9295 133.636 -31.9103 132.493 -32.9821 130.636L-53.2679 95.5C-54.3397 93.6436 -54.3397 91.3564 -53.2679 89.5L-32.9821 54.3638C-31.9103 52.5074 -29.9295 51.3638 -27.7859 51.3638L12.7859 51.3638C14.9295 51.3638 16.9103 52.5074 17.9821 54.3638L38.2679 89.5Z" fill="#171738"/>
<path d="M148.268 52C149.34 53.8564 149.34 56.1436 148.268 58L134.232 82.3109C133.16 84.1673 131.179 85.3109 129.036 85.3109L100.964 85.3109C98.8205 85.3109 96.8397 84.1673 95.7679 82.3109L81.7321 58C80.6603 56.1436 80.6603 53.8564 81.7321 52L95.7679 27.6891C96.8397 25.8327 98.8205 24.6891 100.964 24.6891L129.036 24.6891C131.179 24.6891 133.16 25.8327 134.232 27.6891L148.268 52Z" fill="#171738"/>
</g>
<defs>
<clipPath id="clip0_3_10">
<rect width="120" height="120" fill="white"/>
</clipPath>
</defs>
</svg>
