<svg width="120" height="120" viewBox="0 0 120 120" fill="none" xmlns="http://www.w3.org/2000/svg">
<g clip-path="url(#clip0_3_11)">
<path d="M28.2679 52C29.3397 53.8564 29.3397 56.1436 28.2679 58L14.2321 82.3109C13.1603 84.1673 11.1795 85.3109 9.0359 85.3109L-19.0359 85.3109C-21.1795 85.3109 -23.1603 84.1673 -24.2321 82.3109L-38.2679 58C-39.3397 56.1436 -39.3397 53.8564 -38.2679 52L-24.2321 27.6891C-23.1603 25.8327 -21.1795 24.6891 -19.0359 24.6891L9.0359 24.6891C11.1795 24.6891 13.1603 25.8327 14.2321 27.6891L28.2679 52Z" fill="#171738"/>
<path d="M108.268 127C109.34 128.856 109.34 131.144 108.268 133L91.7321 161.641C90.6603 163.497 88.6795 164.641 86.5359 164.641L53.4641 164.641C51.3205 164.641 49.3397 163.497 48.2679 161.641L31.7321 133C30.6603 131.144 30.6603 128.856 31.7321 127L48.2679 98.359C49.3397 96.5026 51.3205 95.359 53.4641 95.359L86.5359 95.359C88.6795 95.359 90.6603 96.5026 91.7321 98.359L108.268 127Z" fill="#171738"/>
</g>
<defs>
<clipPath id="clip0_3_11">
<rect width="120" height="120" fill="white"/>
</clipPath>
</defs>
</svg>
