<svg width="120" height="120" viewBox="0 0 120 120" fill="none" xmlns="http://www.w3.org/2000/svg">
<g clip-path="url(#clip0_3_13)">
<path d="M10.2679 31C11.3397 32.8564 11.3397 35.1436 10.2679 37L-13.768 78.6314C-14.8397 80.4878 -16.8205 81.6314 -18.9641 81.6314L-67.0359 81.6314C-69.1795 81.6314 -71.1603 80.4878 -72.2321 78.6314L-96.268 37C-97.3397 35.1436 -97.3397 32.8564 -96.2679 31L-72.232 -10.6314C-71.1603 -12.4878 -69.1795 -13.6314 -67.0359 -13.6314L-18.9641 -13.6314C-16.8205 -13.6314 -14.8397 -12.4878 -13.7679 -10.6314L10.2679 31Z" fill="#171738"/>
<path d="M158.268 -30.5C159.34 -28.6436 159.34 -26.3564 158.268 -24.5L137.982 10.6362C136.91 12.4926 134.929 13.6362 132.786 13.6362L92.2141 13.6362C90.0705 13.6362 88.0897 12.4926 87.0179 10.6362L66.7321 -24.5C65.6603 -26.3564 65.6603 -28.6436 66.7321 -30.5L87.0179 -65.6362C88.0897 -67.4926 90.0705 -68.6362 92.2141 -68.6362L132.786 -68.6362C134.929 -68.6362 136.91 -67.4926 137.982 -65.6362L158.268 -30.5Z" fill="#171738"/>
<path d="M168.268 74.5C169.34 76.3564 169.34 78.6436 168.268 80.5L150.482 111.306C149.41 113.162 147.429 114.306 145.286 114.306L109.714 114.306C107.571 114.306 105.59 113.162 104.518 111.306L86.732 80.5C85.6603 78.6436 85.6603 76.3564 86.7321 74.5L104.518 43.6939C105.59 41.8375 107.571 40.6939 109.714 40.6939L145.286 40.6939C147.429 40.6939 149.41 41.8375 150.482 43.6939L168.268 74.5Z" fill="#171738"/>
</g>
<defs>
<clipPath id="clip0_3_13">
<rect width="120" height="120" fill="white"/>
</clipPath>
</defs>
</svg>
