<svg width="120" height="120" viewBox="0 0 120 120" fill="none" xmlns="http://www.w3.org/2000/svg">
<g clip-path="url(#clip0_4_34)">
<path d="M38.2679 -30.5C39.3397 -28.6436 39.3397 -26.3564 38.2679 -24.5L17.9821 10.6362C16.9103 12.4926 14.9295 13.6362 12.7859 13.6362L-27.7859 13.6362C-29.9295 13.6362 -31.9103 12.4926 -32.9821 10.6362L-53.2679 -24.5C-54.3397 -26.3564 -54.3397 -28.6436 -53.2679 -30.5L-32.9821 -65.6362C-31.9103 -67.4926 -29.9295 -68.6362 -27.7859 -68.6362L12.7859 -68.6362C14.9295 -68.6362 16.9103 -67.4926 17.9821 -65.6362L38.2679 -30.5Z" fill="#171738"/>
<path d="M48.2679 74.5C49.3397 76.3564 49.3397 78.6436 48.2679 80.5L30.482 111.306C29.4103 113.162 27.4295 114.306 25.2859 114.306L-10.2859 114.306C-12.4295 114.306 -14.4103 113.162 -15.4821 111.306L-33.268 80.5C-34.3397 78.6436 -34.3397 76.3564 -33.2679 74.5L-15.482 43.6939C-14.4103 41.8375 -12.4295 40.6939 -10.2859 40.6939L25.2859 40.6939C27.4295 40.6939 29.4103 41.8375 30.4821 43.6939L48.2679 74.5Z" fill="#171738"/>
<path d="M153.268 62C154.34 63.8564 154.34 66.1436 153.268 68L141.732 87.9808C140.66 89.8372 138.679 90.9808 136.536 90.9808L113.464 90.9808C111.321 90.9808 109.34 89.8372 108.268 87.9808L96.7321 68C95.6603 66.1436 95.6603 63.8564 96.7321 62L108.268 42.0192C109.34 40.1628 111.321 39.0192 113.464 39.0192L136.536 39.0192C138.679 39.0192 140.66 40.1628 141.732 42.0192L153.268 62Z" fill="#171738"/>
</g>
<defs>
<clipPath id="clip0_4_34">
<rect width="120" height="120" fill="white"/>
</clipPath>
</defs>
</svg>
