<svg width="120" height="120" viewBox="0 0 120 120" fill="none" xmlns="http://www.w3.org/2000/svg">
<g clip-path="url(#clip0_4_35)">
<path d="M108.268 7C109.34 8.85641 109.34 11.1436 108.268 13L91.7321 41.641C90.6603 43.4974 88.6795 44.641 86.5359 44.641L53.4641 44.641C51.3205 44.641 49.3397 43.4974 48.2679 41.641L31.7321 13C30.6603 11.1436 30.6603 8.85641 31.7321 7L48.2679 -21.641C49.3397 -23.4974 51.3205 -24.641 53.4641 -24.641L86.5359 -24.641C88.6795 -24.641 90.6603 -23.4974 91.7321 -21.641L108.268 7Z" fill="#171738"/>
<path d="M33.2679 62C34.3397 63.8564 34.3397 66.1436 33.2679 68L21.7321 87.9808C20.6603 89.8372 18.6795 90.9808 16.5359 90.9808L-6.5359 90.9808C-8.67949 90.9808 -10.6603 89.8372 -11.7321 87.9808L-23.2679 68C-24.3397 66.1436 -24.3397 63.8564 -23.2679 62L-11.7321 42.0192C-10.6603 40.1628 -8.67949 39.0192 -6.5359 39.0192L16.5359 39.0192C18.6795 39.0192 20.6603 40.1628 21.7321 42.0192L33.2679 62Z" fill="#171738"/>
</g>
<defs>
<clipPath id="clip0_4_35">
<rect width="120" height="120" fill="white"/>
</clipPath>
</defs>
</svg>
