<svg width="120" height="120" viewBox="0 0 120 120" fill="none" xmlns="http://www.w3.org/2000/svg">
<g clip-path="url(#clip0_4_23)">
<path d="M78.0866 6.79256C79.3117 6.28509 80.6883 6.28509 81.9134 6.79256L103.542 15.7516C104.768 16.2591 105.741 17.2324 106.248 18.4576L115.207 40.0866C115.715 41.3117 115.715 42.6883 115.207 43.9134L106.248 65.5424C105.741 66.7676 104.768 67.7409 103.542 68.2484L81.9134 77.2074C80.6883 77.7149 79.3117 77.7149 78.0866 77.2074L56.4576 68.2484C55.2324 67.7409 54.2591 66.7676 53.7516 65.5424L44.7926 43.9134C44.2851 42.6883 44.2851 41.3117 44.7926 40.0866L53.7516 18.4576C54.2591 17.2324 55.2324 16.2591 56.4576 15.7516L78.0866 6.79256Z" fill="#171738"/>
<path d="M45.0866 100.793C46.3117 100.285 47.6883 100.285 48.9134 100.793L67.0069 108.287C68.232 108.795 69.2054 109.768 69.7129 110.993L77.2074 129.087C77.7149 130.312 77.7149 131.688 77.2074 132.913L69.7129 151.007C69.2054 152.232 68.232 153.205 67.0069 153.713L48.9134 161.207C47.6883 161.715 46.3117 161.715 45.0866 161.207L26.9931 153.713C25.768 153.205 24.7946 152.232 24.2871 151.007L16.7926 132.913C16.2851 131.688 16.2851 130.312 16.7926 129.087L24.2871 110.993C24.7946 109.768 25.768 108.795 26.9931 108.287L45.0866 100.793Z" fill="#171738"/>
</g>
<defs>
<clipPath id="clip0_4_23">
<rect width="120" height="120" fill="white"/>
</clipPath>
</defs>
</svg>
