<svg width="120" height="120" viewBox="0 0 120 120" fill="none" xmlns="http://www.w3.org/2000/svg">
<g clip-path="url(#clip0_4_24)">
<path d="M52.0866 78.7926C53.3117 78.2851 54.6883 78.2851 55.9134 78.7926L71.8856 85.4084C73.1107 85.9159 74.0841 86.8893 74.5916 88.1144L81.2074 104.087C81.7149 105.312 81.7149 106.688 81.2074 107.913L74.5916 123.886C74.0841 125.111 73.1107 126.084 71.8856 126.592L55.9134 133.207C54.6883 133.715 53.3117 133.715 52.0866 133.207L36.1144 126.592C34.8893 126.084 33.9159 125.111 33.4084 123.886L26.7926 107.913C26.2851 106.688 26.2851 105.312 26.7926 104.087L33.4084 88.1144C33.9159 86.8893 34.8893 85.9159 36.1144 85.4084L52.0866 78.7926Z" fill="#171738"/>
<path d="M125.587 11.7926C126.812 11.2851 128.188 11.2851 129.413 11.7926L152.81 21.4838C154.035 21.9913 155.009 22.9647 155.516 24.1898L165.207 47.5866C165.715 48.8117 165.715 50.1883 165.207 51.4134L155.516 74.8102C155.009 76.0353 154.035 77.0087 152.81 77.5162L129.413 87.2074C128.188 87.7149 126.812 87.7149 125.587 87.2074L102.19 77.5162C100.965 77.0087 99.9913 76.0353 99.4838 74.8102L89.7926 51.4134C89.2851 50.1883 89.2851 48.8117 89.7926 47.5866L99.4838 24.1898C99.9913 22.9647 100.965 21.9913 102.19 21.4838L125.587 11.7926Z" fill="#171738"/>
</g>
<defs>
<clipPath id="clip0_4_24">
<rect width="120" height="120" fill="white"/>
</clipPath>
</defs>
</svg>
