<svg width="120" height="120" viewBox="0 0 120 120" fill="none" xmlns="http://www.w3.org/2000/svg">
<g clip-path="url(#clip0_4_25)">
<path d="M5.58658 11.7926C6.81172 11.2851 8.18828 11.2851 9.41342 11.7926L32.8102 21.4838C34.0353 21.9913 35.0087 22.9647 35.5162 24.1898L45.2074 47.5866C45.7149 48.8117 45.7149 50.1883 45.2074 51.4134L35.5162 74.8102C35.0087 76.0353 34.0353 77.0087 32.8102 77.5162L9.41342 87.2074C8.18828 87.7149 6.81172 87.7149 5.58658 87.2074L-17.8102 77.5162C-19.0353 77.0087 -20.0087 76.0353 -20.5162 74.8102L-30.2074 51.4134C-30.7149 50.1883 -30.7149 48.8117 -30.2074 47.5866L-20.5162 24.1898C-20.0087 22.9647 -19.0353 21.9913 -17.8102 21.4838L5.58658 11.7926Z" fill="#171738"/>
<path d="M79.0866 84.7926C80.3117 84.2851 81.6883 84.2851 82.9134 84.7926L98.8856 91.4084C100.111 91.9159 101.084 92.8893 101.592 94.1144L108.207 110.087C108.715 111.312 108.715 112.688 108.207 113.913L101.592 129.886C101.084 131.111 100.111 132.084 98.8856 132.592L82.9134 139.207C81.6883 139.715 80.3117 139.715 79.0866 139.207L63.1144 132.592C61.8893 132.084 60.9159 131.111 60.4084 129.886L53.7926 113.913C53.2851 112.688 53.2851 111.312 53.7926 110.087L60.4084 94.1144C60.9159 92.8893 61.8893 91.9159 63.1144 91.4084L79.0866 84.7926Z" fill="#171738"/>
</g>
<defs>
<clipPath id="clip0_4_25">
<rect width="120" height="120" fill="white"/>
</clipPath>
</defs>
</svg>
