<svg width="120" height="120" viewBox="0 0 120 120" fill="none" xmlns="http://www.w3.org/2000/svg">
<g clip-path="url(#clip0_4_26)">
<path d="M45.0866 -19.2074C46.3117 -19.7149 47.6883 -19.7149 48.9134 -19.2074L67.0069 -11.7129C68.232 -11.2054 69.2054 -10.232 69.7129 -9.00689L77.2074 9.08658C77.7149 10.3117 77.7149 11.6883 77.2074 12.9134L69.7129 31.0069C69.2054 32.232 68.232 33.2054 67.0069 33.7129L48.9134 41.2074C47.6883 41.7149 46.3117 41.7149 45.0866 41.2074L26.9931 33.7129C25.768 33.2054 24.7946 32.232 24.2871 31.0069L16.7926 12.9134C16.2851 11.6883 16.2851 10.3117 16.7926 9.08658L24.2871 -9.00689C24.7946 -10.232 25.768 -11.2054 26.9931 -11.7129L45.0866 -19.2074Z" fill="#171738"/>
<path d="M137.087 26.7926C138.312 26.2851 139.688 26.2851 140.913 26.7926L162.542 35.7516C163.768 36.2591 164.741 37.2324 165.248 38.4576L174.207 60.0866C174.715 61.3117 174.715 62.6883 174.207 63.9134L165.248 85.5424C164.741 86.7676 163.768 87.7409 162.542 88.2484L140.913 97.2074C139.688 97.7149 138.312 97.7149 137.087 97.2074L115.458 88.2484C114.232 87.7409 113.259 86.7676 112.752 85.5424L103.793 63.9134C103.285 62.6883 103.285 61.3117 103.793 60.0866L112.752 38.4576C113.259 37.2324 114.232 36.2591 115.458 35.7516L137.087 26.7926Z" fill="#171738"/>
<path d="M56.0866 76.7926C57.3117 76.2851 58.6883 76.2851 59.9134 76.7926L91.4419 89.8521C92.6671 90.3596 93.6404 91.3329 94.1479 92.5581L107.207 124.087C107.715 125.312 107.715 126.688 107.207 127.913L94.1479 159.442C93.6404 160.667 92.6671 161.64 91.4419 162.148L59.9134 175.207C58.6883 175.715 57.3117 175.715 56.0866 175.207L24.5581 162.148C23.3329 161.64 22.3596 160.667 21.8521 159.442L8.79256 127.913C8.28509 126.688 8.28509 125.312 8.79256 124.087L21.8521 92.5581C22.3596 91.3329 23.3329 90.3596 24.5581 89.8521L56.0866 76.7926Z" fill="#171738"/>
</g>
<defs>
<clipPath id="clip0_4_26">
<rect width="120" height="120" fill="white"/>
</clipPath>
</defs>
</svg>
