<svg width="120" height="120" viewBox="0 0 120 120" fill="none" xmlns="http://www.w3.org/2000/svg">
<g clip-path="url(#clip0_4_27)">
<path d="M17.0866 26.7926C18.3117 26.2851 19.6883 26.2851 20.9134 26.7926L42.5424 35.7516C43.7676 36.2591 44.7409 37.2324 45.2484 38.4576L54.2074 60.0866C54.7149 61.3117 54.7149 62.6883 54.2074 63.9134L45.2484 85.5424C44.7409 86.7676 43.7676 87.7409 42.5424 88.2484L20.9134 97.2074C19.6883 97.7149 18.3117 97.7149 17.0866 97.2074L-4.54243 88.2484C-5.76757 87.7409 -6.74094 86.7676 -7.24841 85.5424L-16.2074 63.9134C-16.7149 62.6883 -16.7149 61.3117 -16.2074 60.0866L-7.24841 38.4576C-6.74094 37.2324 -5.76757 36.2591 -4.54243 35.7516L17.0866 26.7926Z" fill="#171738"/>
<path d="M52.0866 -41.2074C53.3117 -41.7149 54.6883 -41.7149 55.9134 -41.2074L71.8856 -34.5916C73.1107 -34.0841 74.0841 -33.1107 74.5916 -31.8856L81.2074 -15.9134C81.7149 -14.6883 81.7149 -13.3117 81.2074 -12.0866L74.5916 3.88557C74.0841 5.11071 73.1107 6.08408 71.8856 6.59155L55.9134 13.2074C54.6883 13.7149 53.3117 13.7149 52.0866 13.2074L36.1144 6.59155C34.8893 6.08408 33.9159 5.11071 33.4084 3.88557L26.7926 -12.0866C26.2851 -13.3117 26.2851 -14.6883 26.7926 -15.9134L33.4084 -31.8856C33.9159 -33.1107 34.8893 -34.0841 36.1144 -34.5916L52.0866 -41.2074Z" fill="#171738"/>
<path d="M149.587 42.7926C150.812 42.2851 152.188 42.2851 153.413 42.7926L182.467 54.827C183.692 55.3344 184.666 56.3078 185.173 57.533L197.207 86.5866C197.715 87.8117 197.715 89.1883 197.207 90.4134L185.173 119.467C184.666 120.692 183.692 121.666 182.467 122.173L153.413 134.207C152.188 134.715 150.812 134.715 149.587 134.207L120.533 122.173C119.308 121.666 118.334 120.692 117.827 119.467L105.793 90.4134C105.285 89.1883 105.285 87.8117 105.793 86.5866L117.827 57.5329C118.334 56.3078 119.308 55.3344 120.533 54.827L149.587 42.7926Z" fill="#171738"/>
</g>
<defs>
<clipPath id="clip0_4_27">
<rect width="120" height="120" fill="white"/>
</clipPath>
</defs>
</svg>
