<svg width="120" height="120" viewBox="0 0 120 120" fill="none" xmlns="http://www.w3.org/2000/svg">
<g clip-path="url(#clip0_4_28)">
<path d="M79.0866 -35.2074C80.3117 -35.7149 81.6883 -35.7149 82.9134 -35.2074L98.8856 -28.5916C100.111 -28.0841 101.084 -27.1107 101.592 -25.8856L108.207 -9.91341C108.715 -8.68827 108.715 -7.31172 108.207 -6.08658L101.592 9.88557C101.084 11.1107 100.111 12.0841 98.8856 12.5916L82.9134 19.2074C81.6883 19.7149 80.3117 19.7149 79.0866 19.2074L63.1144 12.5916C61.8893 12.0841 60.9159 11.1107 60.4084 9.88557L53.7926 -6.08659C53.2851 -7.31173 53.2851 -8.68828 53.7926 -9.91342L60.4084 -25.8856C60.9159 -27.1107 61.8893 -28.0841 63.1144 -28.5916L79.0866 -35.2074Z" fill="#171738"/>
<path d="M29.5866 42.7926C30.8117 42.2851 32.1883 42.2851 33.4134 42.7926L62.467 54.827C63.6922 55.3344 64.6656 56.3078 65.173 57.533L77.2074 86.5866C77.7149 87.8117 77.7149 89.1883 77.2074 90.4134L65.173 119.467C64.6656 120.692 63.6922 121.666 62.467 122.173L33.4134 134.207C32.1883 134.715 30.8117 134.715 29.5866 134.207L0.532949 122.173C-0.692191 121.666 -1.66556 120.692 -2.17303 119.467L-14.2074 90.4134C-14.7149 89.1883 -14.7149 87.8117 -14.2074 86.5866L-2.17303 57.5329C-1.66556 56.3078 -0.69219 55.3344 0.532951 54.827L29.5866 42.7926Z" fill="#171738"/>
</g>
<defs>
<clipPath id="clip0_4_28">
<rect width="120" height="120" fill="white"/>
</clipPath>
</defs>
</svg>
