<svg width="120" height="120" viewBox="0 0 120 120" fill="none" xmlns="http://www.w3.org/2000/svg">
<g clip-path="url(#clip0_4_30)">
<path d="M56.0866 -43.2074C57.3117 -43.7149 58.6883 -43.7149 59.9134 -43.2074L91.4419 -30.1479C92.6671 -29.6404 93.6404 -28.6671 94.1479 -27.4419L107.207 4.08658C107.715 5.31172 107.715 6.68828 107.207 7.91342L94.1479 39.4419C93.6404 40.6671 92.6671 41.6404 91.4419 42.1479L59.9134 55.2074C58.6883 55.7149 57.3117 55.7149 56.0866 55.2074L24.5581 42.1479C23.3329 41.6404 22.3596 40.6671 21.8521 39.4419L8.79256 7.91342C8.28509 6.68828 8.28509 5.31172 8.79256 4.08658L21.8521 -27.4419C22.3596 -28.6671 23.3329 -29.6404 24.5581 -30.1479L56.0866 -43.2074Z" fill="#171738"/>
<path d="M106.087 56.7926C107.312 56.2851 108.688 56.2851 109.913 56.7926L125.178 63.1156C126.404 63.623 127.377 64.5964 127.884 65.8215L134.207 81.0866C134.715 82.3117 134.715 83.6883 134.207 84.9134L127.884 100.178C127.377 101.404 126.404 102.377 125.178 102.884L109.913 109.207C108.688 109.715 107.312 109.715 106.087 109.207L90.8215 102.884C89.5964 102.377 88.623 101.404 88.1156 100.178L81.7926 84.9134C81.2851 83.6883 81.2851 82.3117 81.7926 81.0866L88.1156 65.8215C88.623 64.5964 89.5964 63.623 90.8215 63.1156L106.087 56.7926Z" fill="#171738"/>
</g>
<defs>
<clipPath id="clip0_4_30">
<rect width="120" height="120" fill="white"/>
</clipPath>
</defs>
</svg>
