<svg width="120" height="120" viewBox="0 0 120 120" fill="none" xmlns="http://www.w3.org/2000/svg">
<g clip-path="url(#clip0_24_168)">
<path d="M150.587 -77.2074C151.812 -77.7149 153.188 -77.7149 154.413 -77.2074L183.467 -65.173C184.692 -64.6656 185.666 -63.6922 186.173 -62.467L198.207 -33.4134C198.715 -32.1883 198.715 -30.8117 198.207 -29.5866L186.173 -0.532953C185.666 0.692187 184.692 1.66556 183.467 2.17303L154.413 14.2074C153.188 14.7149 151.812 14.7149 150.587 14.2074L121.533 2.17303C120.308 1.66556 119.334 0.692186 118.827 -0.532954L106.793 -29.5866C106.285 -30.8117 106.285 -32.1883 106.793 -33.4134L118.827 -62.4671C119.334 -63.6922 120.308 -64.6656 121.533 -65.173L150.587 -77.2074Z" fill="#171738"/>
<path d="M138.087 47.7926C139.312 47.2851 140.688 47.2851 141.913 47.7926L162.128 56.1658C163.353 56.6733 164.327 57.6466 164.834 58.8718L173.207 79.0866C173.715 80.3117 173.715 81.6883 173.207 82.9134L164.834 103.128C164.327 104.353 163.353 105.327 162.128 105.834L141.913 114.207C140.688 114.715 139.312 114.715 138.087 114.207L117.872 105.834C116.647 105.327 115.673 104.353 115.166 103.128L106.793 82.9134C106.285 81.6883 106.285 80.3117 106.793 79.0866L115.166 58.8718C115.673 57.6466 116.647 56.6733 117.872 56.1658L138.087 47.7926Z" fill="#171738"/>
<path d="M62.0866 6.79256C63.3117 6.28509 64.6883 6.28509 65.9134 6.79256L87.5424 15.7516C88.7676 16.2591 89.7409 17.2324 90.2484 18.4576L99.2074 40.0866C99.7149 41.3117 99.7149 42.6883 99.2074 43.9134L90.2484 65.5424C89.7409 66.7676 88.7676 67.7409 87.5424 68.2484L65.9134 77.2074C64.6883 77.7149 63.3117 77.7149 62.0866 77.2074L40.4576 68.2484C39.2324 67.7409 38.2591 66.7676 37.7516 65.5424L28.7926 43.9134C28.2851 42.6883 28.2851 41.3117 28.7926 40.0866L37.7516 18.4576C38.2591 17.2324 39.2324 16.2591 40.4576 15.7516L62.0866 6.79256Z" fill="#171738"/>
<path d="M-12.9134 56.7926C-11.6883 56.2851 -10.3117 56.2851 -9.08658 56.7926L6.17846 63.1156C7.4036 63.623 8.37697 64.5964 8.88444 65.8215L15.2074 81.0866C15.7149 82.3117 15.7149 83.6883 15.2074 84.9134L8.88444 100.178C8.37697 101.404 7.4036 102.377 6.17846 102.884L-9.08658 109.207C-10.3117 109.715 -11.6883 109.715 -12.9134 109.207L-28.1785 102.884C-29.4036 102.377 -30.377 101.404 -30.8844 100.178L-37.2074 84.9134C-37.7149 83.6883 -37.7149 82.3117 -37.2074 81.0866L-30.8844 65.8215C-30.377 64.5964 -29.4036 63.623 -28.1785 63.1156L-12.9134 56.7926Z" fill="#171738"/>
</g>
<defs>
<clipPath id="clip0_24_168">
<rect width="120" height="120" fill="white"/>
</clipPath>
</defs>
</svg>
