<svg width="120" height="120" viewBox="0 0 120 120" fill="none" xmlns="http://www.w3.org/2000/svg">
<g clip-path="url(#clip0_4_32)">
<path d="M29.5866 -77.2074C30.8117 -77.7149 32.1883 -77.7149 33.4134 -77.2074L62.467 -65.173C63.6922 -64.6656 64.6656 -63.6922 65.173 -62.467L77.2074 -33.4134C77.7149 -32.1883 77.7149 -30.8117 77.2074 -29.5866L65.173 -0.532953C64.6656 0.692187 63.6922 1.66556 62.467 2.17303L33.4134 14.2074C32.1883 14.7149 30.8117 14.7149 29.5866 14.2074L0.532949 2.17303C-0.692191 1.66556 -1.66556 0.692186 -2.17303 -0.532954L-14.2074 -29.5866C-14.7149 -30.8117 -14.7149 -32.1883 -14.2074 -33.4134L-2.17303 -62.4671C-1.66556 -63.6922 -0.69219 -64.6656 0.532951 -65.173L29.5866 -77.2074Z" fill="#171738"/>
<path d="M17.0866 47.7926C18.3117 47.2851 19.6883 47.2851 20.9134 47.7926L41.1282 56.1658C42.3534 56.6733 43.3267 57.6466 43.8342 58.8718L52.2074 79.0866C52.7149 80.3117 52.7149 81.6883 52.2074 82.9134L43.8342 103.128C43.3267 104.353 42.3534 105.327 41.1282 105.834L20.9134 114.207C19.6883 114.715 18.3117 114.715 17.0866 114.207L-3.12821 105.834C-4.35335 105.327 -5.32672 104.353 -5.83419 103.128L-14.2074 82.9134C-14.7149 81.6883 -14.7149 80.3117 -14.2074 79.0866L-5.83419 58.8718C-5.32672 57.6466 -4.35335 56.6733 -3.12821 56.1658L17.0866 47.7926Z" fill="#171738"/>
</g>
<defs>
<clipPath id="clip0_4_32">
<rect width="120" height="120" fill="white"/>
</clipPath>
</defs>
</svg>
