<svg width="120" height="120" viewBox="0 0 120 120" fill="none" xmlns="http://www.w3.org/2000/svg">
<g clip-path="url(#clip0_5_99)">
<path d="M-22.9249 64.2C-21.8471 62.3333 -19.1528 62.3333 -18.0751 64.2L26.8716 142.05C27.9493 143.917 26.6022 146.25 24.4467 146.25H-65.4467C-67.6022 146.25 -68.9493 143.917 -67.8716 142.05L-22.9249 64.2Z" fill="#171738"/>
<path d="M-14.9249 -66.8C-13.8472 -68.6667 -11.1528 -68.6667 -10.0751 -66.8L41.7998 23.05C42.8775 24.9167 41.5304 27.25 39.3749 27.25H-64.3749C-66.5304 27.25 -67.8775 24.9167 -66.7998 23.05L-14.9249 -66.8Z" fill="#171738"/>
<path d="M105.075 15.2C106.153 13.3333 108.847 13.3333 109.925 15.2L155.738 94.55C156.815 96.4167 155.468 98.75 153.313 98.75H61.6873C59.5318 98.75 58.1847 96.4167 59.2624 94.55L105.075 15.2Z" fill="#171738"/>
</g>
<defs>
<clipPath id="clip0_5_99">
<rect width="120" height="120" fill="white"/>
</clipPath>
</defs>
</svg>
