<svg width="120" height="120" viewBox="0 0 120 120" fill="none" xmlns="http://www.w3.org/2000/svg">
<g clip-path="url(#clip0_5_100)">
<path d="M143.075 -29.8C144.153 -31.6667 146.847 -31.6667 147.925 -29.8L193.738 49.55C194.815 51.4167 193.468 53.75 191.313 53.75H99.6873C97.5318 53.75 96.1847 51.4167 97.2624 49.55L143.075 -29.8Z" fill="#171738"/>
<path d="M-14.9249 15.2C-13.8472 13.3333 -11.1528 13.3333 -10.0751 15.2L35.7376 94.55C36.8153 96.4167 35.4682 98.75 33.3127 98.75H-58.3127C-60.4682 98.75 -61.8153 96.4167 -60.7376 94.55L-14.9249 15.2Z" fill="#171738"/>
<path d="M96.5751 87.2C97.6529 85.3333 100.347 85.3333 101.425 87.2L150.269 171.8C151.346 173.667 149.999 176 147.844 176H50.1562C48.0007 176 46.6536 173.667 47.7313 171.8L96.5751 87.2Z" fill="#171738"/>
</g>
<defs>
<clipPath id="clip0_5_100">
<rect width="120" height="120" fill="white"/>
</clipPath>
</defs>
</svg>
