<svg width="120" height="120" viewBox="0 0 120 120" fill="none" xmlns="http://www.w3.org/2000/svg">
<g clip-path="url(#clip0_5_107)">
<path d="M-22.9249 -55.8C-21.8471 -57.6667 -19.1528 -57.6667 -18.0751 -55.8L26.8716 22.05C27.9493 23.9167 26.6022 26.25 24.4467 26.25H-65.4467C-67.6022 26.25 -68.9493 23.9167 -67.8716 22.05L-22.9249 -55.8Z" fill="#171738"/>
<path d="M98.0751 42.2C99.1528 40.3333 101.847 40.3333 102.925 42.2L136.613 100.55C137.691 102.417 136.344 104.75 134.188 104.75H66.8116C64.6562 104.75 63.309 102.417 64.3867 100.55L98.0751 42.2Z" fill="#171738"/>
<path d="M-29.9249 79.2C-28.8472 77.3333 -26.1528 77.3333 -25.0751 79.2L26.7998 169.05C27.8775 170.917 26.5304 173.25 24.3749 173.25H-79.3749C-81.5304 173.25 -82.8775 170.917 -81.7998 169.05L-29.9249 79.2Z" fill="#171738"/>
</g>
<defs>
<clipPath id="clip0_5_107">
<rect width="120" height="120" fill="white"/>
</clipPath>
</defs>
</svg>
