<svg width="120" height="120" viewBox="0 0 120 120" fill="none" xmlns="http://www.w3.org/2000/svg">
<g clip-path="url(#clip0_5_108)">
<path d="M96.5751 -32.8C97.6529 -34.6667 100.347 -34.6667 101.425 -32.8L150.269 51.8C151.346 53.6667 149.999 56 147.844 56H50.1562C48.0007 56 46.6536 53.6667 47.7313 51.8L96.5751 -32.8Z" fill="#171738"/>
<path d="M84.5751 96.2C85.6529 94.3333 88.3472 94.3333 89.4249 96.2L138.269 180.8C139.346 182.667 137.999 185 135.844 185H38.1562C36.0007 185 34.6536 182.667 35.7313 180.8L84.5751 96.2Z" fill="#171738"/>
<path d="M-21.9249 42.2C-20.8472 40.3333 -18.1528 40.3333 -17.0751 42.2L16.6133 100.55C17.691 102.417 16.3438 104.75 14.1884 104.75H-53.1884C-55.3438 104.75 -56.691 102.417 -55.6133 100.55L-21.9249 42.2Z" fill="#171738"/>
</g>
<defs>
<clipPath id="clip0_5_108">
<rect width="120" height="120" fill="white"/>
</clipPath>
</defs>
</svg>
