<svg width="120" height="120" viewBox="0 0 120 120" fill="none" xmlns="http://www.w3.org/2000/svg">
<g clip-path="url(#clip0_5_109)">
<path d="M-23.4249 -32.8C-22.3471 -34.6667 -19.6528 -34.6667 -18.5751 -32.8L30.2687 51.8C31.3464 53.6667 29.9993 56 27.8438 56H-69.8438C-71.9993 56 -73.3464 53.6667 -72.2687 51.8L-23.4249 -32.8Z" fill="#171738"/>
<path d="M-35.4249 96.2C-34.3471 94.3333 -31.6528 94.3333 -30.5751 96.2L18.2687 180.8C19.3464 182.667 17.9993 185 15.8438 185H-81.8438C-83.9993 185 -85.3464 182.667 -84.2687 180.8L-35.4249 96.2Z" fill="#171738"/>
<path d="M70.0751 64.2C71.1529 62.3333 73.8472 62.3333 74.9249 64.2L111.211 127.05C112.289 128.917 110.942 131.25 108.786 131.25H36.2135C34.0581 131.25 32.7109 128.917 33.7887 127.05L70.0751 64.2Z" fill="#171738"/>
</g>
<defs>
<clipPath id="clip0_5_109">
<rect width="120" height="120" fill="white"/>
</clipPath>
</defs>
</svg>
