<svg width="120" height="120" viewBox="0 0 120 120" fill="none" xmlns="http://www.w3.org/2000/svg">
<g clip-path="url(#clip0_4_87)">
<path d="M12.0751 14.2C13.1529 12.3333 15.8472 12.3333 16.9249 14.2L48.0152 68.05C49.0929 69.9167 47.7458 72.25 45.5903 72.25H-16.5903C-18.7458 72.25 -20.0929 69.9167 -19.0152 68.05L12.0751 14.2Z" fill="#171738"/>
<path d="M44.5751 92.2C45.6529 90.3333 48.3472 90.3333 49.4249 92.2L85.2783 154.3C86.356 156.167 85.0089 158.5 82.8535 158.5H11.1465C8.9911 158.5 7.64396 156.167 8.72168 154.3L44.5751 92.2Z" fill="#171738"/>
<path d="M127.075 29.2C128.153 27.3333 130.847 27.3333 131.925 29.2L170.809 96.55C171.887 98.4167 170.54 100.75 168.385 100.75H90.6155C88.46 100.75 87.1129 98.4167 88.1906 96.55L127.075 29.2Z" fill="#171738"/>
</g>
<defs>
<clipPath id="clip0_4_87">
<rect width="120" height="120" fill="white"/>
</clipPath>
</defs>
</svg>
