<svg width="120" height="120" viewBox="0 0 120 120" fill="none" xmlns="http://www.w3.org/2000/svg">
<g clip-path="url(#clip0_4_88)">
<path d="M7.07513 29.2C8.15285 27.3333 10.8472 27.3333 11.9249 29.2L50.8094 96.55C51.8871 98.4167 50.54 100.75 48.3845 100.75H-29.3845C-31.54 100.75 -32.8871 98.4167 -31.8094 96.55L7.07513 29.2Z" fill="#171738"/>
<path d="M108.575 19.2C109.653 17.3333 112.347 17.3333 113.425 19.2L140.618 66.3C141.696 68.1667 140.349 70.5 138.193 70.5H83.8068C81.6514 70.5 80.3042 68.1667 81.3819 66.3L108.575 19.2Z" fill="#171738"/>
<path d="M137.575 86.2C138.653 84.3333 141.347 84.3333 142.425 86.2L186.939 163.3C188.016 165.167 186.669 167.5 184.514 167.5H95.4863C93.3309 167.5 91.9837 165.167 93.0614 163.3L137.575 86.2Z" fill="#171738"/>
</g>
<defs>
<clipPath id="clip0_4_88">
<rect width="120" height="120" fill="white"/>
</clipPath>
</defs>
</svg>
