<svg width="120" height="120" viewBox="0 0 120 120" fill="none" xmlns="http://www.w3.org/2000/svg">
<g clip-path="url(#clip0_5_95)">
<path d="M44.5751 -27.8C45.6529 -29.6667 48.3472 -29.6667 49.4249 -27.8L85.2783 34.3C86.356 36.1667 85.0089 38.5 82.8535 38.5H11.1465C8.9911 38.5 7.64396 36.1667 8.72168 34.3L44.5751 -27.8Z" fill="#171738"/>
<path d="M138.075 33.2C139.153 31.3333 141.847 31.3333 142.925 33.2L178.345 94.55C179.423 96.4167 178.076 98.75 175.92 98.75H105.08C102.924 98.75 101.577 96.4167 102.655 94.55L138.075 33.2Z" fill="#171738"/>
<path d="M-14.9249 53.2C-13.8472 51.3333 -11.1528 51.3333 -10.0751 53.2L41.7998 143.05C42.8775 144.917 41.5304 147.25 39.3749 147.25H-64.3749C-66.5304 147.25 -67.8775 144.917 -66.7998 143.05L-14.9249 53.2Z" fill="#171738"/>
</g>
<defs>
<clipPath id="clip0_5_95">
<rect width="120" height="120" fill="white"/>
</clipPath>
</defs>
</svg>
