<svg width="120" height="120" viewBox="0 0 120 120" fill="none" xmlns="http://www.w3.org/2000/svg">
<g clip-path="url(#clip0_5_96)">
<path d="M137.575 -33.8C138.653 -35.6667 141.347 -35.6667 142.425 -33.8L186.939 43.3C188.016 45.1667 186.669 47.5 184.514 47.5H95.4863C93.3309 47.5 91.9837 45.1667 93.0614 43.3L137.575 -33.8Z" fill="#171738"/>
<path d="M18.0751 33.2C19.1528 31.3333 21.8472 31.3333 22.9249 33.2L58.3453 94.55C59.423 96.4167 58.0759 98.75 55.9204 98.75H-14.9204C-17.0759 98.75 -18.423 96.4167 -17.3453 94.55L18.0751 33.2Z" fill="#171738"/>
<path d="M143.075 90.2C144.153 88.3333 146.847 88.3333 147.925 90.2L193.738 169.55C194.815 171.417 193.468 173.75 191.313 173.75H99.6873C97.5318 173.75 96.1847 171.417 97.2624 169.55L143.075 90.2Z" fill="#171738"/>
</g>
<defs>
<clipPath id="clip0_5_96">
<rect width="120" height="120" fill="white"/>
</clipPath>
</defs>
</svg>
